<svg preserveAspectRatio="none" overflow="visible" style="display: block;" width="54.7753" height="58" viewBox="0 0 54.7753 58" fill="none" xmlns="http://www.w3.org/2000/svg">
<g id="Frame 7" opacity="0.8">
<path id="Vector" d="M42.213 21.0088L50.3877 21.0535L50.3796 24.1378L43.3011 24.1531L43.303 26.8057C48.0327 26.684 48.321 28.9438 48.1826 32.8897C48.0318 37.1908 49.2843 40.5858 43.3075 40.64C43.2043 43.9043 43.8668 47.1408 41.8118 49.877C40.8159 51.2028 38.7199 52.7404 37.0913 52.8591C34.1062 53.0768 30.6393 52.9761 27.6194 52.9806L21.7252 52.9874C18.5248 52.9891 16.8866 53.2197 14.2212 51.217C14.1127 51.1245 14.0068 51.0291 13.9037 50.9307C10.8857 48.0471 11.5481 44.5362 11.4998 40.6099C10.2563 40.624 8.49585 40.6224 7.54178 39.5867C5.72607 37.6157 6.74241 33.4954 6.47083 30.9601C6.35651 29.8929 6.86396 28.4772 7.60617 27.783C8.7067 26.7535 10.0734 26.7908 11.4835 26.8131C11.511 25.937 11.5028 25.026 11.5068 24.1468L4.39177 24.1348C4.37999 23.1175 4.397 22.0762 4.402 21.0568C9.16833 20.9562 14.1452 21.0177 18.9222 21.028L42.213 21.0088ZM38.6897 48.8417C40.1469 47.282 40.2938 46.5856 40.2979 44.4569C40.3012 42.6765 40.2988 40.864 40.2965 39.0809L40.2968 24.1438L14.5614 24.1581C14.4781 26.172 14.5344 28.2482 14.5379 30.2711L14.5429 39.3858C14.55 40.7737 14.531 42.185 14.5227 43.5845C14.5094 45.489 14.4111 47.2712 15.9317 48.7052C16.9191 49.6364 18.183 49.9555 19.5286 49.9338C25.1633 49.8428 30.8258 50.0132 36.4506 49.8456C37.1485 49.8248 38.1786 49.3069 38.6897 48.8417ZM11.3347 37.6486C11.5145 37.4903 11.4945 37.4793 11.4997 37.152C11.5379 34.7575 11.5194 32.3105 11.5062 29.9188L9.79467 29.9203C9.3327 30.5969 9.65421 35.0866 9.56457 36.152C9.4279 37.7764 10.0616 37.7013 11.3347 37.6486ZM43.2923 37.6326C43.7614 37.6375 44.6253 37.6946 45.0272 37.5366C45.2424 36.8324 45.1968 30.9459 45.1309 29.9566C44.5318 29.9363 43.9324 29.9275 43.333 29.9305C43.2177 32.4664 43.334 35.0888 43.2923 37.6326Z" fill="#2C2420"/>
<path id="Vector_2" d="M20.4258 43.0082C21.4319 42.9881 22.5026 43.0106 23.5138 43.0158C23.5068 43.3803 23.5226 43.5571 23.5684 43.918C23.8793 44.1872 30.3562 44.0652 31.2732 44.0615C31.3153 43.8554 31.3359 43.2561 31.3502 43.0169C32.349 42.9933 33.3683 43.0148 34.3689 43.026C34.3788 44.0188 34.4998 44.708 33.972 45.5655C33.0334 46.7509 32.166 47.0127 30.634 46.9845C28.0818 46.9375 25.4654 47.0933 22.9221 46.9011C22.0398 46.8344 20.9129 45.7585 20.4509 45.1254C20.3645 44.2829 20.3774 43.8579 20.4258 43.0082Z" fill="#2C2420"/>
<path id="Vector_3" d="M23.3969 30.0154C24.3663 29.9922 25.375 30.004 26.348 30C26.3753 32.5557 26.3823 35.1118 26.3689 37.6676C27.7002 37.6517 29.0315 37.6461 30.3628 37.6509C30.3743 38.3809 30.4547 40.0311 30.2472 40.6524C29.5489 40.988 28.8388 40.9853 28.0826 40.9915C25.8427 41.01 24.6922 41.1541 23.4288 38.9658C23.3554 36.0802 23.4042 32.922 23.3969 30.0154Z" fill="#2C2420"/>
<path id="Vector_4" d="M32.3927 30.0014L36.3772 30C36.3917 30.9999 36.3912 32 36.3755 33L32.3877 32.9997L32.3927 30.0014Z" fill="#2C2420"/>
<path id="Vector_5" d="M18.3937 30.006L21.3828 30C21.3938 31 21.3862 32.0002 21.36 33L18.3877 32.9748L18.3937 30.006Z" fill="#2C2420"/>
<path id="Vector_6" d="M15.4004 4.12825C16.0025 4.11119 16.6047 4.10114 17.2069 4.09821L32.4229 4.09155C36.5173 4.08737 43.0572 2.98342 43.3148 8.5559C43.4531 11.5447 43.3543 14.9626 43.3429 17.9791C42.054 18.0112 40.6947 17.9956 39.4 17.9998L11.4383 17.9914C11.4097 16.0254 11.4437 14.0146 11.4108 12.054C11.3499 8.42062 11.1195 5.2244 15.4004 4.12825ZM14.4284 14.8355L39.0252 14.8424L40.327 14.8353C40.3362 13.4336 40.6038 8.55861 39.8942 7.67769C38.7263 7.07399 35.5469 7.25208 34.1611 7.25162L26.5671 7.25434L19.5735 7.24948C18.4167 7.24835 16.7125 7.20296 15.5821 7.28596C15.1074 7.53733 14.6726 7.81726 14.5598 8.38482C14.1754 10.3213 14.5084 12.8557 14.4284 14.8355Z" fill="#2C2420"/>
</g>
</svg>
